HIERARCHY
ROOT Hips
{
	OFFSET 0.00 0.00 0.00
	CHANNELS 6 Xposition Yposition Zposition Xrotation Yrotation Zrotation
	JOINT Spine
	{
		OFFSET 0.00000 3.24121 0.00000
		CHANNELS 3 Xrotation Yrotation Zrotation
		JOINT Head
		{
			OFFSET 0.00000 18.38296 0.00000
			CHANNELS 3 Xrotation Yrotation Zrotation
			End Site
			{
				OFFSET 0.00000 4.52755 0.00000
			}
		}
		JOINT LeftShoulder
		{
			OFFSET 0.00000 12.82826 0.00000
			CHANNELS 3 Xrotation Yrotation Zrotation
			JOINT LeftArm
			{
				OFFSET 7.74805 0.00000 0.00000
				CHANNELS 3 Xrotation Yrotation Zrotation
				JOINT LeftForeArm
				{
					OFFSET 10.63561 0.00000 0.00000
					CHANNELS 3 Yrotation Zrotation Xrotation
					JOINT LeftHand
					{
						OFFSET 8.34675 0.00000 0.00000
						CHANNELS 3 Xrotation Yrotation Zrotation
						JOINT LeftHandThumb1
						{
							OFFSET 0.00000 0.00000 0.00000
							CHANNELS 3 Xrotation Zrotation Yrotation
							End Site
							{
								OFFSET 0.00000 0.00000 3.93700
							}
						}
						End Site
						{
							OFFSET 3.93700 0.00000 0.00000
						}
					}
				}
			}
		}
		JOINT RightShoulder
		{
			OFFSET 0.00000 12.82826 0.00000
			CHANNELS 3 Xrotation Yrotation Zrotation
			JOINT RightArm
			{
				OFFSET -7.74805 0.00000 0.00000
				CHANNELS 3 Xrotation Yrotation Zrotation
				JOINT RightForeArm
				{
					OFFSET -10.63561 0.00000 0.00000
					CHANNELS 3 Yrotation Zrotation Xrotation
					JOINT RightHand
					{
						OFFSET -8.34675 0.00000 0.00000
						CHANNELS 3 Xrotation Yrotation Zrotation
						JOINT RightHandThumb1
						{
							OFFSET 0.00000 0.00000 0.00000
							CHANNELS 3 Xrotation Zrotation Yrotation
							End Site
							{
								OFFSET 0.00000 0.00000 3.93700
							}
						}
						End Site
						{
							OFFSET -3.93700 0.00000 0.00000
						}
					}
				}
			}
		}
	}
	JOINT LeftUpLeg
	{
		OFFSET 3.43402 0.00000 0.00000
		CHANNELS 3 Xrotation Yrotation Zrotation
		JOINT LeftLeg
		{
			OFFSET 0.00000 -15.71302 0.00000
			CHANNELS 3 Xrotation Yrotation Zrotation
			JOINT LeftFoot
			{
				OFFSET 0.00000 -14.43512 0.00000
				CHANNELS 3 Xrotation Yrotation Zrotation
				JOINT LeftToeBase
				{
					OFFSET 0.00000 -1.27828 4.77061
					CHANNELS 3 Xrotation Yrotation Zrotation
					End Site
					{
						OFFSET 0.00000 0.00000 2.95275
					}
				}
			}
		}
	}
	JOINT RightUpLeg
	{
		OFFSET -3.43402 0.00000 0.00000
		CHANNELS 3 Xrotation Yrotation Zrotation
		JOINT RightLeg
		{
			OFFSET 0.00000 -15.71302 0.00000
			CHANNELS 3 Xrotation Yrotation Zrotation
			JOINT RightFoot
			{
				OFFSET 0.00000 -14.43512 0.00000
				CHANNELS 3 Xrotation Yrotation Zrotation
				JOINT RightToeBase
				{
					OFFSET 0.00000 -1.27828 4.77061
					CHANNELS 3 Xrotation Yrotation Zrotation
					End Site
					{
						OFFSET 0.00000 0.00000 2.95275
					}
				}
			}
		}
	}
}
MOTION
Frames: 7
Frame Time: 0.008333
 0.1640 34.4443 0.5696 98.3986 -33.4237 -0.8879 -59.5437 -31.7503 10.9742 -21.1158 8.2153 38.5847 22.5015 31.5685 31.2316 -81.5180 15.5230 -42.7400 -117.7842 -0.0000 12.4590 -21.3007 61.6229 23.9003 33.1476 -0.0000 26.2537 42.3894 -37.0083 1.1980 -55.0038 -29.1205 42.4844 -2.9965 -0.0000 -87.0356 -3.1107 7.5483 22.4753 32.8623 0.0000 -24.3270 -100.8008 -1.4684 29.3565 4.1852 0.0000 0.0000 -2.4177 4.7483 7.5171 1.4001 -0.0000 0.0000 6.0659 2.3229 -28.1376 73.7983 -0.0000 -0.0000 36.6349 9.0449 0.6379 33.2216 -0.0000 -0.0000
 0.1828 34.4448 0.5750 98.7863 -33.4464 -0.5155 -59.7845 -31.7227 10.9744 -21.2127 8.3894 38.6469 22.5039 31.6253 31.1928 -81.6168 15.6935 -42.4662 -117.6487 -0.0000 12.2191 -20.9448 61.6321 23.5088 33.1476 -0.0000 26.2537 42.3989 -37.0456 1.1938 -55.1763 -28.9121 42.2764 -3.0935 -0.0000 -86.8571 -3.0860 7.5215 22.3853 32.8623 0.0000 -24.3270 -100.9152 -1.4734 29.3621 4.0389 0.0000 -0.0000 -2.3714 4.9556 7.6782 1.3095 -0.0000 -0.0000 6.1303 2.2679 -28.2377 73.3613 0.0000 -0.0000 36.4465 8.9409 0.5581 33.2661 -0.0000 -0.0000
 0.1966 34.4488 0.5815 99.1702 -33.5412 -0.1663 -59.9915 -31.6778 11.0420 -21.2867 8.5687 38.7385 22.4923 31.6533 31.1369 -81.6880 15.7565 -42.1407 -117.4885 -0.0000 11.8125 -20.4964 61.6281 23.0179 33.1476 -0.0000 26.2537 42.3038 -37.0762 1.1160 -55.2664 -28.7968 42.0434 -3.0848 -0.0000 -86.6415 -2.9972 7.3888 22.1533 32.8623 0.0000 -24.3270 -101.0277 -1.5006 29.4605 3.8908 -0.0000 0.0000 -2.3596 5.1399 7.7092 1.3645 0.0000 -0.0000 6.2027 2.3208 -28.3009 72.9653 -0.0000 0.0000 36.1210 8.8201 0.6409 33.3343 -0.0000 -0.0000
 0.2149 34.4495 0.5906 99.5794 -33.5440 0.2127 -60.2705 -31.6706 11.0231 -21.3710 8.7449 38.8101 22.4520 31.6729 31.0999 -81.7071 15.7903 -41.8378 -117.3724 -0.0000 11.2376 -20.6997 61.4351 23.2789 33.1476 -0.0000 26.2537 42.1359 -37.0778 0.9832 -55.2349 -28.5311 41.8306 -3.2498 -0.0000 -86.6156 -2.9723 7.3292 22.1472 32.8623 0.0000 -24.3270 -101.1889 -1.4267 29.4672 3.7372 -0.0000 0.0000 -2.3386 5.2424 7.7371 1.3660 -0.0000 -0.0000 6.2689 2.2574 -28.3954 72.5272 -0.0000 0.0000 35.8546 8.7269 0.6472 33.4301 0.0000 -0.0000
 0.2349 34.4512 0.5996 100.0514 -33.5432 0.6410 -60.6110 -31.6369 10.9947 -21.4768 8.9427 38.8877 22.4560 31.7358 31.0394 -81.8120 15.8130 -41.5436 -117.2285 -0.0000 10.4174 -20.3867 61.3409 22.9535 33.1476 -0.0000 26.2537 41.9233 -37.0998 0.8186 -55.2481 -28.4028 41.5778 -3.2898 -0.0000 -86.4365 -2.9192 7.2574 21.9821 32.8623 0.0000 -24.3270 -101.4327 -1.3063 29.4813 3.6078 0.0000 0.0000 -2.3294 5.2828 7.7042 1.4001 0.0000 0.0000 6.2858 2.2163 -28.5084 72.0897 0.0000 -0.0000 35.6971 8.7271 0.5293 33.5302 0.0000 -0.0000
 0.2548 34.4498 0.6089 100.4497 -33.4987 1.0353 -60.9096 -31.6121 10.9247 -21.5791 9.1312 38.9715 22.3729 31.7563 31.0381 -81.8035 15.8357 -41.2557 -117.1284 -0.0000 9.7681 -19.7556 61.2914 22.2683 33.1476 -0.0000 26.2537 41.7261 -37.1363 0.6733 -55.1864 -28.1407 41.3686 -3.4335 -0.0000 -86.4450 -2.8712 7.1055 22.0704 32.8623 0.0000 -24.3270 -101.6446 -1.1454 29.4511 3.4912 -0.0000 -0.0000 -2.3644 5.3435 7.5340 1.5897 -0.0000 0.0000 6.3731 2.0957 -28.6219 71.6341 0.0000 0.0000 35.5503 8.6121 0.3847 33.5805 0.0000 -0.0000
 0.2756 34.4509 0.6180 100.9052 -33.4657 1.4621 -61.2515 -31.5710 10.8578 -21.6964 9.3139 39.0604 22.2720 31.7793 31.0603 -81.7506 15.7964 -40.9642 -117.0372 -0.0000 9.0852 -19.2117 61.2671 21.6727 33.1476 -0.0000 26.2537 41.5368 -37.1730 0.5215 -55.1188 -27.9268 41.1756 -3.5073 -0.0000 -86.3857 -2.8328 7.0774 21.8809 32.8623 0.0000 -24.3270 -101.9063 -0.9990 29.4417 3.4021 0.0000 -0.0000 -2.3759 5.3647 7.4439 1.6681 0.0000 0.0000 6.4070 2.0306 -28.7442 71.2080 -0.0000 -0.0000 35.4808 8.5846 0.2735 33.5701 0.0000 -0.0000
